<svg width="24" height="24" viewBox="0 0 24 24" fill="none" xmlns="http://www.w3.org/2000/svg">
<g id="&#236;&#185;&#180;&#235;&#169;&#148;&#235;&#157;&#188;">
<path id="Vector" d="M12 8.29412C14.6316 8.29412 16.7368 10.4118 16.7368 13.0588C16.7368 15.7059 14.6316 17.8235 12 17.8235C9.36842 17.8235 7.26316 15.7059 7.26316 13.0588C7.26316 10.4118 9.36842 8.29412 12 8.29412ZM12 9.35294C11.0229 9.35294 10.0858 9.74338 9.39487 10.4384C8.70395 11.1334 8.31579 12.076 8.31579 13.0588C8.31579 14.0417 8.70395 14.9843 9.39487 15.6793C10.0858 16.3743 11.0229 16.7647 12 16.7647C12.9771 16.7647 13.9142 16.3743 14.6051 15.6793C15.2961 14.9843 15.6842 14.0417 15.6842 13.0588C15.6842 12.076 15.2961 11.1334 14.6051 10.4384C13.9142 9.74338 12.9771 9.35294 12 9.35294ZM5.15789 5.11765H7.26316L9.36842 3H14.6316L16.7368 5.11765H18.8421C19.6796 5.11765 20.4829 5.45231 21.0751 6.04801C21.6673 6.64372 22 7.45167 22 8.29412V17.8235C22 18.666 21.6673 19.4739 21.0751 20.0696C20.4829 20.6653 19.6796 21 18.8421 21H5.15789C4.32037 21 3.51715 20.6653 2.92493 20.0696C2.33271 19.4739 2 18.666 2 17.8235V8.29412C2 7.45167 2.33271 6.64372 2.92493 6.04801C3.51715 5.45231 4.32037 5.11765 5.15789 5.11765ZM9.8 4.05882L7.69474 6.17647H5.15789C4.59954 6.17647 4.06406 6.39958 3.66925 6.79672C3.27444 7.19385 3.05263 7.73248 3.05263 8.29412V17.8235C3.05263 18.3852 3.27444 18.9238 3.66925 19.3209C4.06406 19.7181 4.59954 19.9412 5.15789 19.9412H18.8421C19.4005 19.9412 19.9359 19.7181 20.3308 19.3209C20.7256 18.9238 20.9474 18.3852 20.9474 17.8235V8.29412C20.9474 7.73248 20.7256 7.19385 20.3308 6.79672C19.9359 6.39958 19.4005 6.17647 18.8421 6.17647H16.3053L14.2 4.05882H9.8Z" fill="#919191"/>
</g>
</svg>
