<svg width="140" height="141" viewBox="0 0 140 141" fill="none" xmlns="http://www.w3.org/2000/svg">
<g id="&#236;&#186;&#144;&#236;&#138;&#164;&#237;&#140;&#133; &#236;&#130;&#172;&#236;&#167;&#132;">
<path id="image 93" d="M0 70.1328C0 31.4729 31.3401 0.132812 70 0.132812C108.66 0.132812 140 31.4729 140 70.1328V130.133C140 135.656 135.523 140.133 130 140.133H70C31.3401 140.133 0 108.793 0 70.1328Z" fill="#F5F5F5"/>
<path id="Vector" d="M70 66.4269C72.6316 66.4269 74.7368 68.5446 74.7368 71.1916C74.7368 73.8387 72.6316 75.9563 70 75.9563C67.3684 75.9563 65.2632 73.8387 65.2632 71.1916C65.2632 68.5446 67.3684 66.4269 70 66.4269ZM70 67.4858C69.0229 67.4858 68.0858 67.8762 67.3949 68.5712C66.7039 69.2662 66.3158 70.2088 66.3158 71.1916C66.3158 72.1745 66.7039 73.1171 67.3949 73.8121C68.0858 74.5071 69.0229 74.8975 70 74.8975C70.9771 74.8975 71.9142 74.5071 72.6051 73.8121C73.2961 73.1171 73.6842 72.1745 73.6842 71.1916C73.6842 70.2088 73.2961 69.2662 72.6051 68.5712C71.9142 67.8762 70.9771 67.4858 70 67.4858ZM63.1579 63.2505H65.2632L67.3684 61.1328H72.6316L74.7368 63.2505H76.8421C77.6796 63.2505 78.4829 63.5851 79.0751 64.1808C79.6673 64.7765 80 65.5845 80 66.4269V75.9563C80 76.7988 79.6673 77.6067 79.0751 78.2024C78.4829 78.7982 77.6796 79.1328 76.8421 79.1328H63.1579C62.3204 79.1328 61.5171 78.7982 60.9249 78.2024C60.3327 77.6067 60 76.7988 60 75.9563V66.4269C60 65.5845 60.3327 64.7765 60.9249 64.1808C61.5171 63.5851 62.3204 63.2505 63.1579 63.2505ZM67.8 62.1916L65.6947 64.3093H63.1579C62.5995 64.3093 62.0641 64.5324 61.6692 64.9295C61.2744 65.3267 61.0526 65.8653 61.0526 66.4269V75.9563C61.0526 76.518 61.2744 77.0566 61.6692 77.4537C62.0641 77.8509 62.5995 78.074 63.1579 78.074H76.8421C77.4005 78.074 77.9359 77.8509 78.3308 77.4537C78.7256 77.0566 78.9474 76.518 78.9474 75.9563V66.4269C78.9474 65.8653 78.7256 65.3267 78.3308 64.9295C77.9359 64.5324 77.4005 64.3093 76.8421 64.3093H74.3053L72.2 62.1916H67.8Z" fill="#919191"/>
</g>
</svg>
