<svg width="20" height="20" viewBox="0 0 20 20" fill="none" xmlns="http://www.w3.org/2000/svg">
<path fill-rule="evenodd" clip-rule="evenodd" d="M15.0458 7.52683L8.57647 14.1922L4.75418 10.2541L6.04582 9.00044L8.57647 11.6078L13.7542 6.27317L15.0458 7.52683Z" fill="#A00000"/>
<path fill-rule="evenodd" clip-rule="evenodd" d="M9.9 1.8C5.42649 1.8 1.8 5.42649 1.8 9.9C1.8 14.3735 5.42649 18 9.9 18C14.3735 18 18 14.3735 18 9.9C18 5.42649 14.3735 1.8 9.9 1.8ZM0 9.9C0 4.43238 4.43238 0 9.9 0C15.3676 0 19.8 4.43238 19.8 9.9C19.8 15.3676 15.3676 19.8 9.9 19.8C4.43238 19.8 0 15.3676 0 9.9Z" fill="#A00000"/>
</svg>
