<svg width="24" height="24" viewBox="0 0 24 24" fill="none" xmlns="http://www.w3.org/2000/svg">
<g id="&#235;&#140;&#147;&#234;&#184;&#128;">
<path id="Vector" d="M6.6 18.0004V17.4004H6H5.25C3.78647 17.4004 2.6 16.2137 2.6 14.75V6.25039C2.6 4.78672 3.78647 3.6 5.25 3.6H18.75C20.2135 3.6 21.4 4.78672 21.4 6.25039V14.75C21.4 16.2148 20.2137 17.4004 18.75 17.4004H13.0125H12.8129L12.6531 17.52L7.64014 21.2701C7.64004 21.2702 7.63993 21.2703 7.63983 21.2704C7.50032 21.3742 7.32763 21.4178 7.1585 21.3934C6.98967 21.3691 6.83485 21.2786 6.72825 21.1384C6.64584 21.0277 6.60041 20.8918 6.6 20.7511V18.0004Z" stroke="#919191" stroke-width="1.2"/>
</g>
</svg>
