<svg xmlns="http://www.w3.org/2000/svg" width="24" height="24" viewBox="0 0 24 24" fill="none">
  <path d="M9.28216 16.6822L19.0329 6.18671C19.1407 6.07064 19.2677 6.00863 19.414 6.00068C19.5602 5.99273 19.6942 6.05474 19.8161 6.18671C19.938 6.31869 19.9993 6.4606 20 6.61245C20.0007 6.7643 19.9398 6.90581 19.8172 7.03699L9.90917 17.7102C9.72971 17.9034 9.5207 18 9.28216 18C9.04362 18 8.83461 17.9034 8.65515 17.7102L4.16862 12.8804C4.06079 12.7644 4.00467 12.6264 4.00023 12.4666C3.9958 12.3068 4.05415 12.1613 4.17526 12.0302C4.29638 11.899 4.42821 11.8334 4.57074 11.8334C4.71328 11.8334 4.84511 11.899 4.96622 12.0302L9.28216 16.6822Z" fill="#029DF3"/>
</svg>