<svg xmlns="http://www.w3.org/2000/svg" width="24" height="24" viewBox="0 0 24 24" fill="none">
  <path fill-rule="evenodd" clip-rule="evenodd" d="M6.85356 6.14645C6.6583 5.95119 6.34171 5.95118 6.14645 6.14644C5.95119 6.3417 5.95118 6.65829 6.14644 6.85355L11.5016 12.2088L6.6983 17.1034C6.51108 17.2941 6.51963 17.6148 6.71741 17.8196C6.91518 18.0245 7.22728 18.0358 7.4145 17.8451L12.2304 12.9377L17.3935 18.1008C17.5888 18.2961 17.9054 18.2961 18.1006 18.1008C18.2959 17.9056 18.2959 17.589 18.1006 17.3937L12.9309 12.2239L18.1051 6.95144C18.2924 6.76066 18.2838 6.43997 18.086 6.23516C17.8883 6.03034 17.5762 6.01896 17.3889 6.20973L12.2021 11.4951L6.85356 6.14645Z" fill="#FF1E00"/>
</svg>