<svg width="17" height="16" viewBox="0 0 17 16" fill="none" xmlns="http://www.w3.org/2000/svg">
<path fill-rule="evenodd" clip-rule="evenodd" d="M8.24321 4.09336C8.49217 3.85904 8.49217 3.47914 8.24321 3.24483C7.99425 3.01051 7.59061 3.01051 7.34165 3.24483L2.7375 7.57816C2.61795 7.69068 2.55078 7.8433 2.55078 8.00243C2.55078 8.16155 2.61795 8.31417 2.7375 8.42669L7.34165 12.76C7.59061 12.9943 7.99425 12.9943 8.24321 12.76C8.49217 12.5257 8.49217 12.1458 8.24321 11.9115L4.08984 8.00243L8.24321 4.09336ZM13.91 4.09336C14.159 3.85904 14.159 3.47914 13.91 3.24483C13.661 3.01051 13.2574 3.01051 13.0084 3.24483L8.40429 7.57816C8.28474 7.69068 8.21757 7.8433 8.21757 8.00243C8.21757 8.16155 8.28474 8.31417 8.40429 8.42669L13.0084 12.76C13.2574 12.9943 13.661 12.9943 13.91 12.76C14.159 12.5257 14.159 12.1458 13.91 11.9115L9.75663 8.00243L13.91 4.09336Z" fill="#C1C1C1"/>
</svg>
