<svg width="17" height="16" viewBox="0 0 17 16" fill="none" xmlns="http://www.w3.org/2000/svg">
<path fill-rule="evenodd" clip-rule="evenodd" d="M8.75679 11.9066C8.50783 12.141 8.50783 12.5209 8.75679 12.7552C9.00575 12.9895 9.40939 12.9895 9.65835 12.7552L14.2625 8.42184C14.3821 8.30932 14.4492 8.1567 14.4492 7.99757C14.4492 7.83845 14.3821 7.68583 14.2625 7.57331L9.65835 3.23998C9.40939 3.00566 9.00575 3.00566 8.75679 3.23998C8.50783 3.47429 8.50783 3.85419 8.75679 4.08851L12.9102 7.99757L8.75679 11.9066ZM3.09 11.9066C2.84104 12.141 2.84104 12.5209 3.09 12.7552C3.33896 12.9895 3.7426 12.9895 3.99156 12.7552L8.59571 8.42184C8.71526 8.30932 8.78243 8.1567 8.78243 7.99757C8.78243 7.83844 8.71526 7.68583 8.59571 7.57331L3.99156 3.23998C3.7426 3.00566 3.33896 3.00566 3.09 3.23998C2.84104 3.47429 2.84104 3.85419 3.09 4.0885L7.24337 7.99757L3.09 11.9066Z" fill="#C1C1C1"/>
</svg>
