<svg xmlns="http://www.w3.org/2000/svg" width="28" height="28" viewBox="0 0 28 28" fill="none">
  <path d="M14 13.5C13.337 13.5 12.7011 13.2366 12.2322 12.7678C11.7634 12.2989 11.5 11.663 11.5 11C11.5 10.337 11.7634 9.70107 12.2322 9.23223C12.7011 8.76339 13.337 8.5 14 8.5C14.663 8.5 15.2989 8.76339 15.7678 9.23223C16.2366 9.70107 16.5 10.337 16.5 11C16.5 11.3283 16.4353 11.6534 16.3097 11.9567C16.1841 12.26 15.9999 12.5356 15.7678 12.7678C15.5356 12.9999 15.26 13.1841 14.9567 13.3097C14.6534 13.4353 14.3283 13.5 14 13.5ZM14 4C12.1435 4 10.363 4.7375 9.05025 6.05025C7.7375 7.36301 7 9.14349 7 11C7 16.25 14 24 14 24C14 24 21 16.25 21 11C21 9.14349 20.2625 7.36301 18.9497 6.05025C17.637 4.7375 15.8565 4 14 4Z" fill="#A00000"/>
</svg>