<svg xmlns="http://www.w3.org/2000/svg" width="24" height="24" viewBox="0 0 24 24" fill="none">
  <path fill-rule="evenodd" clip-rule="evenodd" d="M4.17196 11.624C3.89581 11.624 3.67195 11.8479 3.67195 12.124C3.67195 12.4002 3.8958 12.624 4.17195 12.624L11.7454 12.6241L11.8099 19.4815C11.8124 19.7488 12.0452 19.9695 12.3299 19.9745C12.6145 19.9795 12.8433 19.7668 12.8408 19.4995L12.7761 12.6241L20.0778 12.6242C20.354 12.6242 20.5778 12.4003 20.5778 12.1242C20.5778 11.848 20.354 11.6242 20.0779 11.6242L12.7667 11.6241L12.6972 4.23717C12.6947 3.96989 12.4619 3.74918 12.1772 3.7442C11.8926 3.73922 11.6638 3.95185 11.6663 4.21913L11.736 11.6241L4.17196 11.624Z" fill="#919191"/>
</svg>