<svg width="24" height="24" viewBox="0 0 24 24" fill="none" xmlns="http://www.w3.org/2000/svg">
<g id="plus">
<path id="Union" fill-rule="evenodd" clip-rule="evenodd" d="M4.17098 11.623C3.89484 11.623 3.67098 11.8469 3.67097 12.123C3.67097 12.3992 3.89483 12.623 4.17097 12.623L11.7444 12.6231L11.8089 19.4805C11.8114 19.7478 12.0442 19.9685 12.3289 19.9735C12.6136 19.9785 12.8423 19.7659 12.8398 19.4986L12.7751 12.6231L20.0769 12.6232C20.353 12.6232 20.5769 12.3993 20.5769 12.1232C20.5769 11.8471 20.353 11.6232 20.0769 11.6232L12.7657 11.6231L12.6963 4.23619C12.6937 3.96891 12.4609 3.7482 12.1763 3.74322C11.8916 3.73824 11.6628 3.95088 11.6654 4.21816L11.735 11.6231L4.17098 11.623Z" fill="#919191"/>
</g>
</svg>
