<svg width="24" height="24" viewBox="0 0 24 24" fill="none" xmlns="http://www.w3.org/2000/svg">
<g id="&#235;&#140;&#147;&#234;&#184;&#128;_&#237;&#153;&#148;&#236;&#130;&#180;&#237;&#145;&#156;" clip-path="url(#clip0_361_1166)">
<path id="Vector" d="M15.88 11.6225C15.7551 11.4992 15.5861 11.4299 15.41 11.4299C15.2339 11.4299 15.0649 11.4992 14.94 11.6225C14.8158 11.7466 14.7461 11.9144 14.7461 12.0894C14.7461 12.2644 14.8158 12.4322 14.94 12.5563L17.4667 15.0662H5.33333V3.66225C5.33333 3.48661 5.2631 3.31817 5.13807 3.19397C5.01305 3.06977 4.84348 3 4.66667 3C4.48986 3 4.32029 3.06977 4.19526 3.19397C4.07024 3.31817 4 3.48661 4 3.66225V15.0662C4 15.4175 4.14048 15.7544 4.39052 16.0028C4.64057 16.2512 4.97971 16.3907 5.33333 16.3907H17.4333L14.94 18.8742C14.8158 18.9982 14.7461 19.1661 14.7461 19.341C14.7461 19.516 14.8158 19.6839 14.94 19.8079C15.0642 19.9303 15.2318 19.9993 15.4067 20C15.4944 20.0005 15.5814 19.9838 15.6626 19.9508C15.7438 19.9179 15.8177 19.8693 15.88 19.8079L20 15.7285L15.88 11.6225Z" fill="#919191"/>
</g>
<defs>
<clipPath id="clip0_361_1166">
<rect width="24" height="24" fill="white"/>
</clipPath>
</defs>
</svg>
