<svg xmlns="http://www.w3.org/2000/svg" width="20" height="20" viewBox="0 0 20 20" fill="none">
  <path d="M17.5 17.5L14.7196 14.7196M14.7196 14.7196C15.3571 14.0821 15.8628 13.3253 16.2078 12.4924C16.5528 11.6595 16.7304 10.7667 16.7304 9.86518C16.7304 8.96364 16.5528 8.07091 16.2078 7.23799C15.8628 6.40507 15.3571 5.64826 14.7196 5.01077C14.0821 4.37327 13.3253 3.86759 12.4924 3.52258C11.6595 3.17757 10.7667 3 9.86518 3C8.96364 3 8.07091 3.17757 7.23799 3.52258C6.40507 3.86759 5.64826 4.37327 5.01077 5.01077C3.72329 6.29824 3 8.04442 3 9.86518C3 11.6859 3.72329 13.4321 5.01077 14.7196C6.29824 16.0071 8.04442 16.7304 9.86518 16.7304C11.6859 16.7304 13.4321 16.0071 14.7196 14.7196Z" stroke="#A00000" stroke-width="1.2" stroke-linecap="round" stroke-linejoin="round"/>
</svg>