<svg width="20" height="20" viewBox="0 0 20 20" fill="none" xmlns="http://www.w3.org/2000/svg">
<path d="M19 19L15.1825 15.1825M15.1825 15.1825C15.9539 14.411 16.5659 13.4952 16.9834 12.4872C17.4009 11.4792 17.6158 10.3989 17.6158 9.30791C17.6158 8.2169 17.4009 7.13657 16.9834 6.12861C16.5659 5.12065 15.9539 4.20479 15.1825 3.43333C14.411 2.66187 13.4952 2.04991 12.4872 1.6324C11.4792 1.21489 10.3989 1 9.30791 1C8.2169 1 7.13657 1.21489 6.12861 1.6324C5.12065 2.04991 4.20479 2.66187 3.43333 3.43333C1.87529 4.99136 1 7.10451 1 9.30791C1 11.5113 1.87529 13.6244 3.43333 15.1825C4.99136 16.7405 7.10451 17.6158 9.30791 17.6158C11.5113 17.6158 13.6244 16.7405 15.1825 15.1825Z" stroke="#919191" stroke-width="1.5" stroke-linecap="round" stroke-linejoin="round"/>
</svg>
