<svg xmlns="http://www.w3.org/2000/svg" width="28" height="28" viewBox="0 0 28 28" fill="none">
  <path d="M23 23L19.1825 19.1825M19.1825 19.1825C19.9539 18.411 20.5659 17.4952 20.9834 16.4872C21.4009 15.4792 21.6158 14.3989 21.6158 13.3079C21.6158 12.2169 21.4009 11.1366 20.9834 10.1286C20.5659 9.12065 19.9539 8.20479 19.1825 7.43333C18.411 6.66187 17.4952 6.04991 16.4872 5.6324C15.4792 5.21489 14.3989 5 13.3079 5C12.2169 5 11.1366 5.21489 10.1286 5.6324C9.12065 6.04991 8.20479 6.66187 7.43333 7.43333C5.87529 8.99136 5 11.1045 5 13.3079C5 15.5113 5.87529 17.6244 7.43333 19.1825C8.99136 20.7405 11.1045 21.6158 13.3079 21.6158C15.5113 21.6158 17.6244 20.7405 19.1825 19.1825Z" stroke="#919191" stroke-width="1.5" stroke-linecap="round" stroke-linejoin="round"/>
</svg>