<svg width="36" height="36" viewBox="0 0 36 36" fill="none" xmlns="http://www.w3.org/2000/svg">
<g id="&#8;&#234;&#178;&#128;&#236;&#131;&#137;">
<path id="Vector" d="M31 31L25.4858 25.4858M25.4858 25.4858C26.6001 24.3715 27.4841 23.0486 28.0871 21.5926C28.6902 20.1367 29.0006 18.5762 29.0006 17.0003C29.0006 15.4244 28.6902 13.8639 28.0872 12.408C27.4841 10.952 26.6001 9.62914 25.4858 8.51481C24.3715 7.40048 23.0486 6.51654 21.5926 5.91347C20.1367 5.3104 18.5762 5 17.0003 5C15.4244 5 13.8639 5.3104 12.408 5.91347C10.952 6.51654 9.62914 7.40048 8.51481 8.51481C6.26431 10.7653 5 13.8176 5 17.0003C5 20.183 6.26431 23.2353 8.51481 25.4858C10.7653 27.7363 13.8176 29.0006 17.0003 29.0006C20.183 29.0006 23.2353 27.7363 25.4858 25.4858Z" stroke="black" stroke-width="2" stroke-linecap="round" stroke-linejoin="round"/>
</g>
</svg>
