<svg width="24" height="24" viewBox="0 0 24 24" fill="none" xmlns="http://www.w3.org/2000/svg">
<path d="M7.38429 18.7553L11.9999 15.9776L16.6155 18.7919L15.4066 13.5289L19.4727 10.0202L14.1245 9.54509L11.9999 4.57448L9.87524 9.50854L4.52701 9.98368L8.59313 13.5289L7.38429 18.7553ZM11.9999 17.6984L6.68096 20.9029C6.52466 20.9799 6.3796 21.0111 6.24577 20.9965C6.11292 20.9809 5.98349 20.9351 5.85748 20.8591C5.73049 20.7811 5.63476 20.671 5.57028 20.5287C5.50581 20.3864 5.49995 20.2309 5.5527 20.0623L6.96815 14.0537L2.28662 10.0041C2.15475 9.89693 2.06781 9.76877 2.0258 9.61965C1.9838 9.47053 1.99308 9.32775 2.05364 9.1913C2.11421 9.05486 2.1948 8.94277 2.29541 8.85506C2.397 8.77026 2.53376 8.71276 2.70569 8.68255L8.88325 8.14455L11.2922 2.45467C11.3586 2.29385 11.4543 2.17787 11.5793 2.10672C11.7044 2.03557 11.8446 2 11.9999 2C12.1552 2 12.2959 2.03557 12.4219 2.10672C12.5479 2.17787 12.6431 2.29385 12.7076 2.45467L15.1165 8.14455L21.2926 8.68255C21.4655 8.71179 21.6027 8.76978 21.7043 8.85652C21.8059 8.94229 21.887 9.05388 21.9476 9.1913C22.0072 9.32775 22.016 9.47053 21.9739 9.61965C21.9319 9.76877 21.845 9.89693 21.7131 10.0041L17.0316 14.0537L18.4471 20.0623C18.5018 20.229 18.4964 20.3839 18.4309 20.5272C18.3655 20.6705 18.2693 20.7806 18.1423 20.8576C18.0172 20.9356 17.8878 20.9819 17.754 20.9965C17.6211 21.0111 17.4766 20.9799 17.3203 20.9029L11.9999 17.6984Z" fill="#A00000"/>
</svg>
