<svg width="24" height="24" viewBox="0 0 24 24" fill="none" xmlns="http://www.w3.org/2000/svg">
<g clip-path="url(#clip0_2897_3158)">
<path d="M22.0099 9.19023C21.9499 9.05023 21.8699 8.94023 21.7699 8.86023C21.6699 8.77023 21.5299 8.72023 21.3599 8.69023L15.1799 8.15023L12.7699 2.45023C12.7099 2.29023 12.6099 2.17023 12.4799 2.10023C12.3499 2.03023 12.2099 1.99023 12.0599 1.99023C11.9099 1.99023 11.7599 2.03023 11.6399 2.10023C11.5199 2.17023 11.4199 2.29023 11.3499 2.45023L8.97986 8.05023L2.73986 8.56023C2.55986 8.59023 2.41986 8.65023 2.30986 8.73023C2.19986 8.82023 2.11986 8.93023 2.05986 9.06023C1.99986 9.19023 1.98986 9.33023 2.02986 9.48023C2.03986 9.52023 2.06986 9.56023 2.08986 9.60023C2.08986 9.60023 2.08986 9.60023 2.08986 9.61023C2.12986 9.76023 2.21986 9.89023 2.34986 9.99023L7.02986 14.0402L5.60986 20.0502C5.55986 20.2202 5.55986 20.3702 5.62986 20.5202C5.68986 20.6602 5.78986 20.7702 5.91986 20.8502C6.04986 20.9302 6.17986 20.9702 6.30986 20.9902C6.43986 21.0002 6.58986 20.9702 6.74986 20.9002L12.0699 17.7002L17.3899 20.9002C17.5499 20.9802 17.6899 21.0102 17.8199 20.9902C17.9499 20.9802 18.0799 20.9302 18.2099 20.8502C18.3399 20.7702 18.4299 20.6602 18.4999 20.5202C18.5699 20.3802 18.5699 20.2202 18.5199 20.0602L17.0999 14.0502L21.7799 10.0002C21.9099 9.89023 21.9999 9.76023 22.0399 9.62023C22.0799 9.47023 22.0699 9.33023 22.0099 9.19023ZM15.4699 13.5302L16.6799 18.7902L12.2299 16.0802V4.96023L14.1899 9.54023L19.5399 10.0202L15.4699 13.5302Z" fill="#A00000"/>
</g>
<defs>
<clipPath id="clip0_2897_3158">
<rect width="20.06" height="19" fill="white" transform="translate(2 2)"/>
</clipPath>
</defs>
</svg>
