<svg width="24" height="24" viewBox="0 0 24 24" fill="none" xmlns="http://www.w3.org/2000/svg">
<g clip-path="url(#clip0_2674_3084)">
<mask id="mask0_2674_3084" style="mask-type:alpha" maskUnits="userSpaceOnUse" x="3" y="3" width="18" height="17">
<path d="M11.9999 16.3007L12.2579 16.4561L16.7973 19.1903C16.8498 19.2141 16.8744 19.2145 16.8776 19.2144L16.8777 19.2144C16.9109 19.2108 16.9507 19.199 17.0003 19.1681L17.0056 19.1648L17.0056 19.1648C17.0234 19.1541 17.0404 19.1388 17.0575 19.1014L17.5122 19.3092L17.0575 19.1014C17.0578 19.1008 17.058 19.1003 17.0581 19.0999C17.0581 19.0984 17.058 19.0881 17.051 19.0666L17.0443 19.0462L17.0394 19.0253L15.8261 13.8751L15.7567 13.5804L15.9857 13.3823L19.9985 9.91125L20.0042 9.90626L20.0102 9.90144C20.0513 9.86795 20.0625 9.84323 20.0678 9.82428C20.0719 9.80993 20.0715 9.80361 20.0714 9.80292L20.071 9.80035C20.0708 9.79948 20.0703 9.79787 20.0694 9.79543C20.0691 9.79464 20.0687 9.79376 20.0683 9.79279L20.5265 9.59269M11.9999 16.3007L12.1174 3.9578C12.1212 3.96242 12.131 3.97585 12.1424 4.00448L12.1424 4.00452L12.1461 4.01336L14.2109 8.8904L14.3282 9.16747L14.6279 9.19358L19.8987 9.65272C19.9714 9.66709 19.9933 9.68597 19.9933 9.68598L19.9955 9.68778C20.0173 9.70619 20.0437 9.73708 20.069 9.79433L20.5265 9.59269M11.9999 16.3007L11.7419 16.4562L7.20377 19.1903M11.9999 16.3007L7.20377 19.1903M20.5265 9.59269C20.4746 9.47489 20.4051 9.37924 20.318 9.30573L17.5261 18.9107L16.3128 13.7605L20.3256 10.2894C20.4386 10.1975 20.5131 10.0877 20.5491 9.95984C20.5851 9.83203 20.5776 9.70964 20.5265 9.59269ZM7.20377 19.1903C7.15228 19.2136 7.12723 19.2145 7.12258 19.2144C7.08749 19.2098 7.0458 19.1969 6.99523 19.1667C6.97632 19.1548 6.96004 19.1389 6.94427 19.1041L6.94353 19.1023L6.94344 19.102L6.94341 19.1019L6.9434 19.1019L6.94337 19.1017L6.94326 19.1002C6.94317 19.0976 6.94307 19.0852 6.95095 19.06L6.95632 19.0428L6.96044 19.0253L8.17368 13.8751L8.24311 13.5804L8.01411 13.3823L4.00137 9.91125L3.9956 9.90626L3.98967 9.90144C3.94848 9.86795 3.93732 9.84323 3.93198 9.82428C3.92808 9.81044 3.92861 9.80471 3.92862 9.80462L3.92893 9.80275C3.92917 9.80178 3.92984 9.79944 3.93157 9.79553C3.95547 9.74169 3.98115 9.70845 4.00469 9.68648C4.01256 9.68106 4.03945 9.66534 4.10157 9.65257L9.3719 9.19358L9.67165 9.16748L9.78896 8.8904L11.8537 4.01336L11.8537 4.01336L11.8554 4.00931C11.8678 3.97937 11.8784 3.96458 11.8831 3.95877L7.20377 19.1903ZM11.887 3.95459C11.8869 3.95465 11.8868 3.9547 11.8867 3.95476C11.8872 3.95448 11.8875 3.95428 11.8874 3.95428C11.8874 3.95428 11.8873 3.95437 11.887 3.95459ZM11.887 3.95459C11.9129 3.93996 11.9466 3.92871 11.9999 3.92871C12.053 3.92871 12.0877 3.93987 12.1151 3.95522L11.887 3.95459ZM16.932 19.7114C16.8181 19.724 16.6942 19.6972 16.5602 19.6312L16.932 19.7114Z" fill="#A00000" stroke="#A00000"/>
</mask>
<g mask="url(#mask0_2674_3084)">
<rect x="0.857117" y="0.857422" width="11.1429" height="19.7143" fill="#A00000"/>
</g>
<path d="M7.38429 18.7553L11.9999 15.9776L16.6155 18.7919L15.4066 13.5289L19.4727 10.0202L14.1245 9.54509L11.9999 4.57448L9.87524 9.50854L4.52701 9.98368L8.59313 13.5289L7.38429 18.7553ZM11.9999 17.6984L6.68096 20.9029C6.52466 20.9799 6.3796 21.0111 6.24577 20.9965C6.11292 20.9809 5.98349 20.9351 5.85748 20.8591C5.73049 20.7811 5.63476 20.671 5.57028 20.5287C5.50581 20.3864 5.49995 20.2309 5.5527 20.0623L6.96815 14.0537L2.28662 10.0041C2.15475 9.89693 2.06781 9.76877 2.0258 9.61965C1.9838 9.47053 1.99308 9.32775 2.05364 9.1913C2.11421 9.05486 2.1948 8.94277 2.29541 8.85506C2.397 8.77026 2.53376 8.71276 2.70569 8.68255L8.88325 8.14455L11.2922 2.45467C11.3586 2.29385 11.4543 2.17787 11.5793 2.10672C11.7044 2.03557 11.8446 2 11.9999 2C12.1552 2 12.2959 2.03557 12.4219 2.10672C12.5479 2.17787 12.6431 2.29385 12.7076 2.45467L15.1165 8.14455L21.2926 8.68255C21.4655 8.71179 21.6027 8.76978 21.7043 8.85652C21.8059 8.94229 21.887 9.05388 21.9476 9.1913C22.0072 9.32775 22.016 9.47053 21.9739 9.61965C21.9319 9.76877 21.845 9.89693 21.7131 10.0041L17.0316 14.0537L18.4471 20.0623C18.5018 20.229 18.4964 20.3839 18.4309 20.5272C18.3655 20.6705 18.2693 20.7806 18.1423 20.8576C18.0172 20.9356 17.8878 20.9819 17.754 20.9965C17.6211 21.0111 17.4766 20.9799 17.3203 20.9029L11.9999 17.6984Z" fill="#A00000"/>
</g>
<defs>
<clipPath id="clip0_2674_3084">
<rect width="24" height="24" fill="white"/>
</clipPath>
</defs>
</svg>
