<svg width="24" height="24" viewBox="0 0 24 24" fill="none" xmlns="http://www.w3.org/2000/svg">
<g id="&#236;&#162;&#139;&#236;&#149;&#132;&#236;&#154;&#148;_fill">
<path id="Vector" d="M21.4636 7.7708C21.2625 7.54105 21.0152 7.35707 20.7381 7.23107C20.461 7.10507 20.1605 7.03994 19.8565 7.04H14.8567V5.6C14.8567 4.64522 14.4804 3.72955 13.8107 3.05442C13.1409 2.37928 12.2326 2 11.2854 2C11.1527 1.9999 11.0226 2.03707 10.9097 2.10734C10.7968 2.1776 10.7055 2.27818 10.6461 2.3978L7.27303 9.2H3.42852C3.04965 9.2 2.6863 9.35171 2.4184 9.62177C2.1505 9.89182 2 10.2581 2 10.64V18.56C2 18.9419 2.1505 19.3082 2.4184 19.5782C2.6863 19.8483 3.04965 20 3.42852 20H18.7851C19.3072 20.0002 19.8113 19.8082 20.2029 19.4602C20.5945 19.1122 20.8466 18.6321 20.9118 18.11L21.9832 9.47C22.0212 9.16582 21.9945 8.85698 21.9049 8.564C21.8153 8.27103 21.6649 8.00063 21.4636 7.7708ZM3.42852 10.64H6.99983V18.56H3.42852V10.64Z" fill="#A00000"/>
</g>
</svg>
