<svg width="24" height="24" viewBox="0 0 24 24" fill="none" xmlns="http://www.w3.org/2000/svg">
<g id="&#236;&#162;&#139;&#236;&#149;&#132;&#236;&#154;&#148;/Default">
<path id="Vector" d="M21.4991 7.82612C21.3115 7.61139 21.0808 7.43943 20.8223 7.32163C20.5639 7.20383 20.2836 7.14289 20 7.14286H14.7273V5.4898C14.7273 4.56424 14.3633 3.6766 13.7155 3.02214C13.0676 2.36767 12.1889 2 11.2727 2C11.1714 1.99997 11.072 2.02848 10.9857 2.08234C10.8995 2.1362 10.8298 2.21327 10.7846 2.3049L7.2991 9.34694H3.27273C2.93518 9.34694 2.61146 9.4824 2.37277 9.72352C2.13409 9.96463 2 10.2917 2 10.6327V18.7143C2 19.0553 2.13409 19.3823 2.37277 19.6234C2.61146 19.8645 2.93518 20 3.27273 20H18.9091C19.3966 20 19.8672 19.8202 20.2327 19.4943C20.5981 19.1684 20.8332 18.7189 20.8937 18.2303L21.9846 9.41398C22.0197 9.12967 21.9946 8.84106 21.9109 8.56729C21.8272 8.29353 21.6869 8.04089 21.4991 7.82612ZM3.09091 18.7143V10.6327C3.09091 10.5839 3.11007 10.5372 3.14416 10.5028C3.17826 10.4683 3.22451 10.449 3.27273 10.449H7.09092V18.898H3.27273C3.22451 18.898 3.17826 18.8786 3.14416 18.8442C3.11007 18.8097 3.09091 18.763 3.09091 18.7143ZM20.9018 9.27714L19.8109 18.0935C19.7835 18.3155 19.6767 18.5198 19.5106 18.668C19.3445 18.8161 19.1307 18.8979 18.9091 18.898H8.18183V10.0284L11.5982 3.125C12.1632 3.20435 12.6808 3.48745 13.0554 3.92208C13.43 4.3567 13.6363 4.91352 13.6364 5.4898V7.69388C13.6364 7.84002 13.6938 7.98017 13.7961 8.08351C13.8984 8.18684 14.0372 8.2449 14.1818 8.2449H20C20.1289 8.24493 20.2563 8.27265 20.3738 8.32622C20.4912 8.37978 20.5961 8.45796 20.6814 8.55557C20.7666 8.65319 20.8304 8.768 20.8684 8.89241C20.9064 9.01681 20.9178 9.14795 20.9018 9.27714Z" fill="#919191"/>
</g>
</svg>
