<svg width="221" height="172" viewBox="0 0 221 172" fill="none" xmlns="http://www.w3.org/2000/svg">
<line x1="8.5" y1="10.1592" x2="8.5" y2="134.159" stroke="#919191"/>
<circle cx="8" cy="9.15918" r="7.5" fill="white" stroke="#919191"/>
<circle cx="8" cy="71.1592" r="7.5" fill="white" stroke="#919191"/>
<circle cx="8" cy="133.159" r="7.5" fill="white" stroke="#919191"/>
<path d="M44.6348 4.26074V14.1592H43.1172V5.76465H43.0625L40.6973 7.30957V5.87402L43.1582 4.26074H44.6348ZM50.9375 3.7959L47.752 15.6494H46.4531L49.6387 3.7959H50.9375ZM55.3672 14.2959C53.4941 14.2959 52.0859 13.1475 52.0176 11.5752H53.4805C53.5625 12.4229 54.3691 13.0381 55.3672 13.0381C56.5703 13.0381 57.4316 12.1631 57.4316 10.9873C57.4316 9.78418 56.543 8.90918 55.2988 8.89551C54.5059 8.89551 53.9043 9.15527 53.5625 9.77051H52.1406L52.7832 4.26074H58.3887V5.5459H54.0273L53.6992 8.32129H53.7949C54.2051 7.9248 54.9023 7.65137 55.6543 7.65137C57.5137 7.65137 58.8945 9.03223 58.8945 10.9463C58.8945 12.9014 57.4316 14.2959 55.3672 14.2959ZM64.2266 10.3857C64.2402 7.81543 64.9648 5.66895 66.25 3.83691H67.5898C66.6465 5.19043 65.7441 7.95215 65.7441 10.3857C65.7441 12.833 66.6465 15.5811 67.5898 16.9482H66.25C64.9648 15.1162 64.2402 12.9697 64.2266 10.3857ZM71.9648 3.48145C73.8105 3.49512 75.1641 4.62988 75.1777 6.22949C75.1641 7.84277 73.8105 8.96387 71.9648 8.96387C70.1055 8.96387 68.7383 7.84277 68.7383 6.22949C68.7383 4.62988 70.1055 3.49512 71.9648 3.48145ZM71.9648 4.5752C70.8301 4.56152 69.9961 5.23145 70.0098 6.22949C69.9961 7.24121 70.8301 7.91113 71.9648 7.91113C73.0859 7.91113 73.9199 7.24121 73.9199 6.22949C73.9199 5.23145 73.0859 4.56152 71.9648 4.5752ZM78.6504 3.07129V9.30566H77.3516V3.07129H78.6504ZM78.6504 9.86621V12.9561H71.8965V14.1318H79.0605V15.1709H70.6387V11.9854H77.3652V10.9053H70.5977V9.86621H78.6504ZM83.9551 10.3857C83.9414 12.9697 83.2168 15.1162 81.9316 16.9482H80.5918C81.5352 15.5811 82.4375 12.833 82.4375 10.3857C82.4375 7.95215 81.5352 5.19043 80.5918 3.83691H81.9316C83.2168 5.66895 83.9414 7.81543 83.9551 10.3857ZM89.875 8.9502C90.3262 8.44434 90.8867 8.18457 91.502 8.18457C92.5684 8.18457 93.5117 8.96387 94.5508 8.96387C95.1797 8.96387 95.7266 8.69043 96.1504 8.14355V9.45605C95.6855 9.96191 95.1387 10.2217 94.5234 10.2217C93.457 10.2217 92.5 9.44238 91.4609 9.44238C90.8457 9.44238 90.3125 9.71582 89.875 10.2627V8.9502ZM105.516 4.26074V14.1592H103.998V5.76465H103.943L101.578 7.30957V5.87402L104.039 4.26074H105.516ZM111.818 3.7959L108.633 15.6494H107.334L110.52 3.7959H111.818ZM116.398 14.2959C114.348 14.2959 112.885 13.1885 112.83 11.5752H114.361C114.416 12.4502 115.277 12.9971 116.385 12.9971C117.574 12.9971 118.449 12.3408 118.449 11.3838C118.449 10.4131 117.629 9.70215 116.221 9.70215H115.373V8.47168H116.221C117.342 8.47168 118.135 7.84277 118.135 6.89941C118.135 5.99707 117.465 5.38184 116.412 5.38184C115.414 5.38184 114.539 5.92871 114.498 6.83105H113.049C113.09 5.21777 114.58 4.12402 116.426 4.12402C118.367 4.12402 119.598 5.35449 119.584 6.81738C119.598 7.93848 118.9 8.75879 117.834 9.01855V9.08691C119.188 9.27832 119.967 10.1807 119.967 11.4385C119.967 13.0928 118.449 14.2959 116.398 14.2959ZM125.066 14.2959C122.77 14.2959 121.43 12.4502 121.43 9.20996C121.43 5.99707 122.797 4.12402 125.066 4.12402C127.336 4.12402 128.703 5.99707 128.703 9.20996C128.703 12.4502 127.35 14.2959 125.066 14.2959ZM125.066 12.9971C126.406 12.9971 127.199 11.6846 127.199 9.20996C127.199 6.74902 126.393 5.39551 125.066 5.39551C123.74 5.39551 122.934 6.74902 122.934 9.20996C122.934 11.6846 123.727 12.9971 125.066 12.9971ZM133.994 10.3857C134.008 7.81543 134.732 5.66895 136.018 3.83691H137.357C136.414 5.19043 135.512 7.95215 135.512 10.3857C135.512 12.833 136.414 15.5811 137.357 16.9482H136.018C134.732 15.1162 134.008 12.9697 133.994 10.3857ZM148.008 3.57715V7.77441H144.48V9.19629H149.43V10.249H138.26V9.19629H143.195V7.77441H139.682V3.57715H148.008ZM140.953 4.60254V6.73535H146.723V4.60254H140.953ZM148.062 11.4111V15.3213H146.75V12.4365H139.504V11.4111H148.062ZM153.723 10.3857C153.709 12.9697 152.984 15.1162 151.699 16.9482H150.359C151.303 15.5811 152.205 12.833 152.205 10.3857C152.205 7.95215 151.303 5.19043 150.359 3.83691H151.699C152.984 5.66895 153.709 7.81543 153.723 10.3857Z" fill="black"/>
<path d="M47.2598 33.1514V34.2178H42.4883V36.583H46.7949V37.6221H42.4883V40.3701C44.6348 40.3633 46.1797 40.2744 47.998 39.9873L48.1348 41.04C46.1934 41.3545 44.5117 41.4229 42.2012 41.4229H41.2031V33.1514H47.2598ZM50.6367 32.0713V44.3213H49.3242V32.0713H50.6367ZM63.0371 32.085V40.3564H61.8066V32.085H63.0371ZM60.5762 32.29V39.2627H59.3457V36.6514H57.1992C56.4746 38.0391 55.2031 39.1807 53.2344 40.0283L52.6055 39.085C54.3008 38.374 55.3945 37.4512 56.0371 36.3506L52.8242 36.6924L52.6328 35.626L56.4609 35.4072C56.5977 34.9971 56.6865 34.5664 56.7344 34.1221H53.1934V33.0693H57.9922C57.9922 33.9717 57.8828 34.8193 57.6367 35.5986H59.3457V32.29H60.5762ZM59.5098 40.001C59.5098 41.5459 61.3555 42.9131 63.666 43.2549L63.1602 44.2666C61.2666 43.9521 59.6396 43.0225 58.8809 41.71C58.1084 43.0225 56.4814 43.9521 54.5879 44.2666L54.0684 43.2549C56.3789 42.9131 58.2246 41.5459 58.2246 40.001V39.6455H59.5098V40.001ZM73.6465 32.8096C76.2715 32.8232 78.1719 34.1084 78.1719 36.0635C78.1719 37.9023 76.5791 39.1123 74.2891 39.3037V41.71H79.2793V42.79H68.0684V41.71H73.0039V39.3037C70.7275 39.1123 69.1348 37.9023 69.1348 36.0635C69.1348 34.1084 71.0352 32.8232 73.6465 32.8096ZM73.6465 33.876C71.7598 33.8623 70.3926 34.7373 70.3926 36.0635C70.3926 37.4443 71.7598 38.292 73.6465 38.3057C75.5469 38.292 76.9141 37.4443 76.9141 36.0635C76.9141 34.7373 75.5469 33.8623 73.6465 33.876ZM90.2852 32.6592V33.6982H88.5078V36.2822H90.2305V37.3213H81.248V36.2822H82.9844V33.6982H81.1934V32.6592H90.2852ZM91.3379 38.5381V39.5908H80.168V38.5381H91.3379ZM90.0801 43.0088V44.0615H81.5762V40.6162H82.8887V43.0088H90.0801ZM84.2695 36.2822H87.209V33.6982H84.2695V36.2822Z" fill="black"/>
<path d="M44.6348 128.261V138.159H43.1172V129.765H43.0625L40.6973 131.31V129.874L43.1582 128.261H44.6348ZM50.9375 127.796L47.752 139.649H46.4531L49.6387 127.796H50.9375ZM55.7637 128.261V138.159H54.2461V129.765H54.1914L51.8262 131.31V129.874L54.2871 128.261H55.7637ZM58.6211 138.159L63.0371 129.628V129.546H57.9375V128.261H64.5957V129.601L60.1934 138.159H58.6211ZM69.8457 134.386C69.8594 131.815 70.584 129.669 71.8691 127.837H73.209C72.2656 129.19 71.3633 131.952 71.3633 134.386C71.3633 136.833 72.2656 139.581 73.209 140.948H71.8691C70.584 139.116 69.8594 136.97 69.8457 134.386ZM83.9004 127.687V128.616C83.9004 129.58 83.9004 130.674 83.5859 132.157H85.3223V133.224H74.1113V132.157H82.2734C82.6016 130.729 82.6152 129.683 82.6152 128.753H75.5195V127.687H83.9004ZM83.9141 134.782V139.171H75.4785V134.782H83.9141ZM76.75 135.808V138.118H82.6289V135.808H76.75ZM89.5742 134.386C89.5605 136.97 88.8359 139.116 87.5508 140.948H86.2109C87.1543 139.581 88.0566 136.833 88.0566 134.386C88.0566 131.952 87.1543 129.19 86.2109 127.837H87.5508C88.8359 129.669 89.5605 131.815 89.5742 134.386ZM95.4941 132.95C95.9453 132.444 96.5059 132.185 97.1211 132.185C98.1875 132.185 99.1309 132.964 100.17 132.964C100.799 132.964 101.346 132.69 101.77 132.144V133.456C101.305 133.962 100.758 134.222 100.143 134.222C99.0762 134.222 98.1191 133.442 97.0801 133.442C96.4648 133.442 95.9316 133.716 95.4941 134.263V132.95ZM111.135 128.261V138.159H109.617V129.765H109.562L107.197 131.31V129.874L109.658 128.261H111.135ZM117.438 127.796L114.252 139.649H112.953L116.139 127.796H117.438ZM122.264 128.261V138.159H120.746V129.765H120.691L118.326 131.31V129.874L120.787 128.261H122.264ZM128.184 128.124C130.002 128.138 131.916 129.231 131.916 132.854C131.916 136.327 130.426 138.296 128.047 138.296C126.229 138.296 124.943 137.175 124.711 135.562H126.201C126.406 136.396 127.049 136.983 128.047 136.983C129.578 136.983 130.467 135.644 130.48 133.388H130.357C129.824 134.222 128.895 134.728 127.828 134.728C126.051 134.728 124.629 133.374 124.629 131.474C124.629 129.587 126.037 128.11 128.184 128.124ZM128.184 129.382C126.98 129.382 126.092 130.312 126.092 131.446C126.092 132.595 126.953 133.497 128.156 133.497C129.346 133.497 130.275 132.526 130.275 131.433C130.275 130.366 129.4 129.382 128.184 129.382ZM137.234 134.386C137.248 131.815 137.973 129.669 139.258 127.837H140.598C139.654 129.19 138.752 131.952 138.752 134.386C138.752 136.833 139.654 139.581 140.598 140.948H139.258C137.973 139.116 137.248 136.97 137.234 134.386ZM144.973 127.481C146.818 127.495 148.172 128.63 148.186 130.229C148.172 131.843 146.818 132.964 144.973 132.964C143.113 132.964 141.746 131.843 141.746 130.229C141.746 128.63 143.113 127.495 144.973 127.481ZM144.973 128.575C143.838 128.562 143.004 129.231 143.018 130.229C143.004 131.241 143.838 131.911 144.973 131.911C146.094 131.911 146.928 131.241 146.928 130.229C146.928 129.231 146.094 128.562 144.973 128.575ZM151.658 127.071V133.306H150.359V127.071H151.658ZM151.658 133.866V136.956H144.904V138.132H152.068V139.171H143.646V135.985H150.373V134.905H143.605V133.866H151.658ZM156.963 134.386C156.949 136.97 156.225 139.116 154.939 140.948H153.6C154.543 139.581 155.445 136.833 155.445 134.386C155.445 131.952 154.543 129.19 153.6 127.837H154.939C156.225 129.669 156.949 131.815 156.963 134.386Z" fill="black"/>
<path d="M51.6621 165.751V166.858H40.4512V165.751H45.373V163.14H41.4355V162.114H43.2676V158.259H41.4082V157.206H50.6367V158.259H48.7637V162.114H50.5957V163.14H46.6582V165.751H51.6621ZM44.5527 162.114H47.4922V158.259H44.5527V162.114ZM62.4902 162.347V163.386H58.7852V165.778H63.7617V166.845H52.5508V165.778H57.4863V163.386H53.959V157.015H62.3672V158.081H55.2715V159.653H62.1074V160.679H55.2715V162.347H62.4902ZM75.8477 163.276V164.302H70.8438V168.321H69.5723V164.302H64.6367V163.276H75.8477ZM67.3164 156.563V158.163H73.1406V156.563H74.4395V161.882H66.0312V156.563H67.3164ZM67.3164 160.843H73.1406V159.202H67.3164V160.843ZM82.9707 157.808C82.9707 159.804 85.1035 161.69 87.4551 162.114L86.8535 163.194C84.8984 162.771 83.0938 161.485 82.3008 159.763C81.4941 161.472 79.6963 162.757 77.7344 163.194L77.1602 162.114C79.4844 161.677 81.6035 159.804 81.6035 157.808V156.878H82.9707V157.808ZM87.9609 165.628V166.708H76.75V165.628H87.9609ZM102.412 156.071V168.349H101.113V156.071H102.412ZM95.8633 156.987C97.6816 156.987 99.0215 158.655 99.0215 161.28C99.0215 163.919 97.6816 165.587 95.8633 165.587C94.0176 165.587 92.6914 163.919 92.6914 161.28C92.6914 158.655 94.0176 156.987 95.8633 156.987ZM95.8633 158.149C94.7285 158.149 93.9492 159.353 93.9492 161.28C93.9492 163.222 94.7285 164.425 95.8633 164.425C96.9844 164.425 97.7637 163.222 97.7637 161.28C97.7637 159.353 96.9844 158.149 95.8633 158.149ZM114.812 156.071V165.368H113.582V156.071H114.812ZM112.42 156.29V164.985H111.189V160.624H109.686V163.099H104.887V157.042H106.117V159.052H108.482V157.042H109.686V159.571H111.189V156.29H112.42ZM106.117 162.046H108.482V160.05H106.117V162.046ZM115.168 167.009V168.062H106.691V164.11H107.977V167.009H115.168ZM126.406 162.593V163.632H117.875V157.083H126.283V158.136H119.188V159.79H126.023V160.815H119.188V162.593H126.406ZM127.678 165.71V166.776H116.467V165.71H127.678Z" fill="black"/>
<path d="M44.6348 66.2607V76.1592H43.1172V67.7646H43.0625L40.6973 69.3096V67.874L43.1582 66.2607H44.6348ZM50.9375 65.7959L47.752 77.6494H46.4531L49.6387 65.7959H50.9375ZM55.7637 66.2607V76.1592H54.2461V67.7646H54.1914L51.8262 69.3096V67.874L54.2871 66.2607H55.7637ZM61.8613 76.2959C60.0293 76.2822 58.1152 75.2021 58.1152 71.5381C58.1152 68.0928 59.6055 66.124 61.9844 66.124C63.8027 66.124 65.0742 67.2588 65.3066 68.8311H63.8164C63.625 68.0244 62.9824 67.4365 61.9844 67.4365C60.4531 67.4365 59.5645 68.7764 59.5645 71.0049H59.6738C60.207 70.1709 61.1367 69.665 62.2168 69.665C63.9805 69.665 65.4023 71.0186 65.4023 72.9189C65.4023 74.833 63.9941 76.3096 61.8613 76.2959ZM61.8477 75.0381C63.0508 75.0381 63.9395 74.1084 63.9395 72.9463C63.9395 71.8115 63.0781 70.8955 61.8887 70.8955C60.6719 70.8955 59.7559 71.8525 59.7422 72.96C59.7559 74.0537 60.6309 75.0381 61.8477 75.0381ZM70.7344 72.3857C70.748 69.8154 71.4727 67.6689 72.7578 65.8369H74.0977C73.1543 67.1904 72.252 69.9521 72.252 72.3857C72.252 74.833 73.1543 77.5811 74.0977 78.9482H72.7578C71.4727 77.1162 70.748 74.9697 70.7344 72.3857ZM84.748 65.5771V69.7744H81.2207V71.1963H86.1699V72.249H75V71.1963H79.9355V69.7744H76.4219V65.5771H84.748ZM77.6934 66.6025V68.7354H83.4629V66.6025H77.6934ZM84.8027 73.4111V77.3213H83.4902V74.4365H76.2441V73.4111H84.8027ZM90.4629 72.3857C90.4492 74.9697 89.7246 77.1162 88.4395 78.9482H87.0996C88.043 77.5811 88.9453 74.833 88.9453 72.3857C88.9453 69.9521 88.043 67.1904 87.0996 65.8369H88.4395C89.7246 67.6689 90.4492 69.8154 90.4629 72.3857ZM96.3828 70.9502C96.834 70.4443 97.3945 70.1846 98.0098 70.1846C99.0762 70.1846 100.02 70.9639 101.059 70.9639C101.688 70.9639 102.234 70.6904 102.658 70.1436V71.4561C102.193 71.9619 101.646 72.2217 101.031 72.2217C99.9648 72.2217 99.0078 71.4424 97.9688 71.4424C97.3535 71.4424 96.8203 71.7158 96.3828 72.2627V70.9502ZM112.023 66.2607V76.1592H110.506V67.7646H110.451L108.086 69.3096V67.874L110.547 66.2607H112.023ZM118.326 65.7959L115.141 77.6494H113.842L117.027 65.7959H118.326ZM123.152 66.2607V76.1592H121.635V67.7646H121.58L119.215 69.3096V67.874L121.676 66.2607H123.152ZM126.01 76.1592L130.426 67.6279V67.5459H125.326V66.2607H131.984V67.6006L127.582 76.1592H126.01ZM137.234 72.3857C137.248 69.8154 137.973 67.6689 139.258 65.8369H140.598C139.654 67.1904 138.752 69.9521 138.752 72.3857C138.752 74.833 139.654 77.5811 140.598 78.9482H139.258C137.973 77.1162 137.248 74.9697 137.234 72.3857ZM151.289 65.6865V66.6162C151.289 67.5801 151.289 68.6738 150.975 70.1572H152.711V71.2236H141.5V70.1572H149.662C149.99 68.7285 150.004 67.6826 150.004 66.7529H142.908V65.6865H151.289ZM151.303 72.7822V77.1709H142.867V72.7822H151.303ZM144.139 73.8076V76.1182H150.018V73.8076H144.139ZM156.963 72.3857C156.949 74.9697 156.225 77.1162 154.939 78.9482H153.6C154.543 77.5811 155.445 74.833 155.445 72.3857C155.445 69.9521 154.543 67.1904 153.6 65.8369H154.939C156.225 67.6689 156.949 69.8154 156.963 72.3857Z" fill="black"/>
<path d="M46.6992 95.3154C46.6855 98.9248 45.5098 102.138 41.1621 104.353L40.4375 103.368C42.584 102.268 43.9102 100.948 44.6484 99.3896L40.6836 99.7725L40.4785 98.6514L45.0586 98.3643C45.2432 97.7354 45.3594 97.0654 45.4141 96.3682H41.1074V95.3154H46.6992ZM50.6504 94.0713V106.321H49.3652V99.9912H46.6719V98.9248H49.3652V94.0713H50.6504ZM63.7207 100.798V101.837H52.5234V100.798H63.7207ZM62.5586 105.009V106.062H53.959V102.644H55.2441V105.009H62.5586ZM62.4355 98.7744V99.7725H53.9863V94.5088H62.3535V95.5205H55.2988V96.6416H62.0391V97.626H55.2988V98.7744H62.4355ZM74.4668 94.3994V95.1787C74.4668 96.0537 74.4668 97.1748 74.1934 98.665L72.9082 98.583C73.0039 98.0771 73.0654 97.6123 73.1133 97.1885L65.8125 97.5439L65.6484 96.5049L73.168 96.2998C73.1748 95.9785 73.1816 95.6914 73.1816 95.4248H65.9629V94.3994H74.4668ZM75.8066 99.3076V100.333H64.6641V99.3076H69.0801V97.9268H70.3926V99.3076H75.8066ZM74.4121 101.235V104.147H67.2754V105.132H74.7539V106.13H66.0039V103.204H73.127V102.233H65.9902V101.235H74.4121ZM90.3125 94.0713V106.349H89.0137V94.0713H90.3125ZM83.7637 94.9873C85.582 94.9873 86.9219 96.6553 86.9219 99.2803C86.9219 101.919 85.582 103.587 83.7637 103.587C81.918 103.587 80.5918 101.919 80.5918 99.2803C80.5918 96.6553 81.918 94.9873 83.7637 94.9873ZM83.7637 96.1494C82.6289 96.1494 81.8496 97.3525 81.8496 99.2803C81.8496 101.222 82.6289 102.425 83.7637 102.425C84.8848 102.425 85.6641 101.222 85.6641 99.2803C85.6641 97.3525 84.8848 96.1494 83.7637 96.1494ZM102.713 94.0713V103.368H101.482V94.0713H102.713ZM100.32 94.29V102.985H99.0898V98.624H97.5859V101.099H92.7871V95.042H94.0176V97.0518H96.3828V95.042H97.5859V97.5713H99.0898V94.29H100.32ZM94.0176 100.046H96.3828V98.0498H94.0176V100.046ZM103.068 105.009V106.062H94.5918V102.11H95.877V105.009H103.068ZM114.307 100.593V101.632H105.775V95.083H114.184V96.1357H107.088V97.79H113.924V98.8154H107.088V100.593H114.307ZM115.578 103.71V104.776H104.367V103.71H115.578Z" fill="black"/>
<path d="M40 54.1592H220" stroke="#E6E6E6" stroke-linecap="round"/>
<path d="M40 116.159H220" stroke="#E6E6E6" stroke-linecap="round"/>
</svg>
